<svg xmlns="http://www.w3.org/2000/svg" viewBox="0 0 200 130" aria-hidden="true">
  <defs>
    <clipPath id="face"><circle cx="20" cy="20" r="20"/></clipPath>
    <symbol id="person" viewBox="0 0 40 40">
      <g clip-path="url(#face)" fill="#fff" opacity=".92">
        <circle cx="20" cy="16" r="7.5"/>
        <circle cx="20" cy="42" r="15"/>
      </g>
    </symbol>
  </defs>

  <!-- Liens entre camarades -->
  <g stroke="#d2c8b6" stroke-width="3" stroke-dasharray="2 7" stroke-linecap="round" fill="none">
    <path d="M100 66L36 36M100 66L164 34M100 66L44 108M100 66L158 106M36 36L44 108M164 34L158 106"/>
  </g>

  <circle cx="36" cy="36" r="20" fill="#1a8f62"/>
  <use href="#person" x="16" y="16" width="40" height="40"/>
  <circle cx="164" cy="34" r="20" fill="#ef6a3f"/>
  <use href="#person" x="144" y="14" width="40" height="40"/>
  <circle cx="44" cy="108" r="17" fill="#e0a100"/>
  <use href="#person" x="27" y="91" width="34" height="34"/>
  <circle cx="158" cy="106" r="17" fill="#8a5cd6"/>
  <use href="#person" x="141" y="89" width="34" height="34"/>

  <!-- Au centre, la classe et son étoile -->
  <circle cx="100" cy="66" r="30" fill="#4a5bd4"/>
  <circle cx="100" cy="66" r="36" fill="none" stroke="#4a5bd4" stroke-width="2" opacity=".25"/>
  <path fill="#ffc445" d="M100 50l4.9 10 11 1.6-8 7.8 1.9 11-9.8-5.2-9.8 5.2 1.9-11-8-7.8 11-1.6z"/>
</svg>
