<svg xmlns="http://www.w3.org/2000/svg" viewBox="0 0 160 120" aria-hidden="true">
  <ellipse cx="80" cy="108" rx="62" ry="7" fill="#e5ded0"/>

  <!-- Cahier ouvert -->
  <path d="M80 26c-14-8-34-10-54-6v76c20-4 40-2 54 6z" fill="#fff" stroke="#d2c8b6" stroke-width="2.5" stroke-linejoin="round"/>
  <path d="M80 26c14-8 34-10 54-6v76c-20-4-40-2-54 6z" fill="#fff" stroke="#d2c8b6" stroke-width="2.5" stroke-linejoin="round"/>
  <g fill="none" stroke="#e5ded0" stroke-width="2.5" stroke-linecap="round">
    <path d="M36 38c12-2 24-1 34 3M36 52c12-2 24-1 34 3M36 66c12-2 24-1 34 3"/>
    <path d="M90 41c10-4 22-5 34-3M90 55c10-4 22-5 34-3"/>
  </g>

  <!-- Loupe : on cherche encore -->
  <circle cx="108" cy="72" r="15" fill="#eef0ff" stroke="#4a5bd4" stroke-width="6"/>
  <path d="M119 83l14 14" stroke="#ef6a3f" stroke-width="8" stroke-linecap="round"/>

  <path fill="#e0a100" d="M140 12l2 5.5 5.5 2-5.5 2-2 5.5-2-5.5-5.5-2 5.5-2z"/>
  <path fill="#4a5bd4" d="M18 8l1.5 4 4 1.5-4 1.5-1.5 4-1.5-4-4-1.5 4-1.5z"/>
</svg>
