<svg xmlns="http://www.w3.org/2000/svg" viewBox="0 0 240 200" aria-hidden="true">
  <circle cx="128" cy="108" r="84" fill="#dfe3ff" opacity=".75"/>
  <circle cx="206" cy="58" r="16" fill="#ffe1d4"/>

  <!-- Pile de livres -->
  <rect x="58" y="160" width="126" height="22" rx="5" fill="#4a5bd4"/>
  <rect x="164" y="165" width="14" height="12" rx="2" fill="#fff" opacity=".35"/>
  <rect x="70" y="138" width="108" height="22" rx="5" fill="#ef6a3f"/>
  <rect x="78" y="143" width="40" height="4" rx="2" fill="#fff" opacity=".45"/>
  <rect x="62" y="116" width="114" height="22" rx="5" fill="#1a8f62"/>
  <rect x="156" y="121" width="12" height="12" rx="2" fill="#fff" opacity=".35"/>
  <rect x="40" y="182" width="170" height="6" rx="3" fill="#e5ded0"/>

  <!-- Ampoule : l'idée qui s'allume -->
  <g stroke="#e0a100" stroke-width="5" stroke-linecap="round">
    <path d="M120 14v10M84 30l7 7M156 30l-7 7M72 64h10M158 64h10"/>
  </g>
  <circle cx="120" cy="64" r="27" fill="#ffd35c"/>
  <path d="M104 62a16 16 0 0 1 12-15" fill="none" stroke="#fff" stroke-width="5" stroke-linecap="round" opacity=".75"/>
  <rect x="108" y="88" width="24" height="10" rx="3" fill="#d2c8b6"/>
  <rect x="111" y="98" width="18" height="8" rx="3" fill="#b9ae99"/>

  <!-- Bulles : on en discute -->
  <path d="M14 36a12 12 0 0 1 12-12h36a12 12 0 0 1 12 12v10a12 12 0 0 1-12 12H36l-10 9v-9a12 12 0 0 1-12-12z" fill="#fff" stroke="#e5ded0" stroke-width="2"/>
  <circle cx="32" cy="41" r="4" fill="#4a5bd4"/>
  <circle cx="44" cy="41" r="4" fill="#4a5bd4" opacity=".6"/>
  <circle cx="56" cy="41" r="4" fill="#4a5bd4" opacity=".3"/>

  <path d="M170 94a12 12 0 0 1 12-12h32a12 12 0 0 1 12 12v8a12 12 0 0 1-12 12h-4v9l-10-9h-18a12 12 0 0 1-12-12z" fill="#ef6a3f"/>
  <path d="M187 98l7 7 13-13" fill="none" stroke="#fff" stroke-width="5" stroke-linecap="round" stroke-linejoin="round"/>

  <path fill="#4a5bd4" d="M214 22l2 6 6 2-6 2-2 6-2-6-6-2 6-2z"/>
  <path fill="#ef6a3f" d="M30 100l1.5 4.5L36 106l-4.5 1.5L30 112l-1.5-4.5L24 106l4.5-1.5z"/>
</svg>
